<svg xmlns="http://www.w3.org/2000/svg" viewBox="0 0 512 512">
  <rect width="512" height="512" rx="114" fill="#0f0f0f"/>
  <g transform="translate(96, 96) scale(3.2)">
    <polygon points="95,50 72.5,88.97 27.5,88.97 5,50 27.5,11.03 72.5,11.03" fill="#ffffff"/>
    <polygon points="87,50 68.5,82.04 31.5,82.04 13,50 31.5,17.96 68.5,17.96" fill="#0f0f0f"/>
    <polygon points="79,50 64.5,75.11 35.5,75.11 21,50 35.5,24.89 64.5,24.89" fill="#ffffff"/>
    <polygon points="71,50 60.5,68.19 39.5,68.19 29,50 39.5,31.81 60.5,31.81" fill="#0f0f0f"/>
    <polygon points="63,50 56.5,61.26 43.5,61.26 37,50 43.5,38.74 56.5,38.74" fill="#ffffff"/>
    <polygon points="55,50 52.5,54.33 47.5,54.33 45,50 47.5,45.67 52.5,45.67" fill="#0f0f0f"/>
  </g>
</svg>
